<?xml version="1.0" standalone="no"?><!DOCTYPE svg PUBLIC "-//W3C//DTD SVG 1.1//EN" "http://www.w3.org/Graphics/SVG/1.1/DTD/svg11.dtd"><svg t="1765536407211" class="icon" viewBox="0 0 1024 1024" version="1.1" xmlns="http://www.w3.org/2000/svg" p-id="5667" xmlns:xlink="http://www.w3.org/1999/xlink" width="256" height="256"><path d="M298.666667 298.666667c-46.933333 0-85.333333 38.4-85.333334 85.333333v256a85.333333 85.333333 0 0 0 85.333334 85.333333h85.333333c47.36 0 85.333333-37.973333 85.333333-85.333333V384a85.333333 85.333333 0 0 0-85.333333-85.333333H298.666667m0 85.333333h85.333333v256H298.666667V384m452.266666 341.333333l-89.6-89.6-89.6 89.6-59.733333-59.733333 89.6-89.6-89.6-89.6 59.733333-59.733333 89.6 89.6 89.6-89.6 59.733334 59.733333-89.6 89.6 89.6 89.6-59.733334 59.733333z" p-id="5668"></path></svg>